<mxfile host="Electron" modified="2024-05-11T18:50:04.312Z" agent="Mozilla/5.0 (Windows NT 10.0; Win64; x64) AppleWebKit/537.36 (KHTML, like Gecko) draw.io/24.2.5 Chrome/120.0.6099.109 Electron/28.1.0 Safari/537.36" etag="2j-rvta_H76ydg32AUHP" version="24.2.5" type="device">
  <diagram name="Page-1" id="JhJO68F0MScFm5VFcH2b">
    <mxGraphModel dx="2231" dy="1730" grid="1" gridSize="10" guides="1" tooltips="1" connect="1" arrows="1" fold="1" page="1" pageScale="1" pageWidth="850" pageHeight="1100" math="0" shadow="0">
      <root>
        <mxCell id="0" />
        <mxCell id="1" parent="0" />
        <mxCell id="XBtThdsCsidGP5THT7By-33" style="edgeStyle=orthogonalEdgeStyle;rounded=0;orthogonalLoop=1;jettySize=auto;html=1;" parent="1" source="XBtThdsCsidGP5THT7By-19" target="XBtThdsCsidGP5THT7By-20" edge="1">
          <mxGeometry relative="1" as="geometry" />
        </mxCell>
        <mxCell id="XBtThdsCsidGP5THT7By-47" style="edgeStyle=orthogonalEdgeStyle;rounded=0;orthogonalLoop=1;jettySize=auto;html=1;" parent="1" source="XBtThdsCsidGP5THT7By-19" edge="1">
          <mxGeometry relative="1" as="geometry">
            <mxPoint x="410" y="320" as="targetPoint" />
            <Array as="points">
              <mxPoint x="250" y="320" />
            </Array>
          </mxGeometry>
        </mxCell>
        <mxCell id="XBtThdsCsidGP5THT7By-51" style="edgeStyle=orthogonalEdgeStyle;rounded=0;orthogonalLoop=1;jettySize=auto;html=1;" parent="1" source="XBtThdsCsidGP5THT7By-19" target="XBtThdsCsidGP5THT7By-48" edge="1">
          <mxGeometry relative="1" as="geometry" />
        </mxCell>
        <mxCell id="d2gDiPB4mw1BwgjRo6Uf-2" style="edgeStyle=orthogonalEdgeStyle;rounded=0;orthogonalLoop=1;jettySize=auto;html=1;entryX=0.5;entryY=1;entryDx=0;entryDy=0;" parent="1" source="XBtThdsCsidGP5THT7By-19" edge="1">
          <mxGeometry relative="1" as="geometry">
            <mxPoint x="519.9999999999995" y="140" as="targetPoint" />
          </mxGeometry>
        </mxCell>
        <mxCell id="XBtThdsCsidGP5THT7By-19" value="IPhone" style="ellipse;whiteSpace=wrap;html=1;" parent="1" vertex="1">
          <mxGeometry x="180" y="160" width="120" height="80" as="geometry" />
        </mxCell>
        <mxCell id="XBtThdsCsidGP5THT7By-27" style="edgeStyle=orthogonalEdgeStyle;rounded=0;orthogonalLoop=1;jettySize=auto;html=1;" parent="1" source="XBtThdsCsidGP5THT7By-20" target="XBtThdsCsidGP5THT7By-22" edge="1">
          <mxGeometry relative="1" as="geometry" />
        </mxCell>
        <mxCell id="d2gDiPB4mw1BwgjRo6Uf-13" style="edgeStyle=orthogonalEdgeStyle;rounded=0;orthogonalLoop=1;jettySize=auto;html=1;entryX=0;entryY=0.5;entryDx=0;entryDy=0;" parent="1" source="XBtThdsCsidGP5THT7By-20" target="d2gDiPB4mw1BwgjRo6Uf-12" edge="1">
          <mxGeometry relative="1" as="geometry" />
        </mxCell>
        <mxCell id="XBtThdsCsidGP5THT7By-20" value="Hardware" style="ellipse;whiteSpace=wrap;html=1;fillColor=#FFA3B3;" parent="1" vertex="1">
          <mxGeometry x="180" y="40" width="120" height="80" as="geometry" />
        </mxCell>
        <mxCell id="XBtThdsCsidGP5THT7By-50" style="edgeStyle=orthogonalEdgeStyle;rounded=0;orthogonalLoop=1;jettySize=auto;html=1;entryX=0.5;entryY=1;entryDx=0;entryDy=0;" parent="1" source="XBtThdsCsidGP5THT7By-21" target="XBtThdsCsidGP5THT7By-49" edge="1">
          <mxGeometry relative="1" as="geometry" />
        </mxCell>
        <mxCell id="d2gDiPB4mw1BwgjRo6Uf-19" style="edgeStyle=orthogonalEdgeStyle;rounded=0;orthogonalLoop=1;jettySize=auto;html=1;entryX=0.5;entryY=1;entryDx=0;entryDy=0;" parent="1" source="XBtThdsCsidGP5THT7By-21" target="d2gDiPB4mw1BwgjRo6Uf-18" edge="1">
          <mxGeometry relative="1" as="geometry" />
        </mxCell>
        <mxCell id="XBtThdsCsidGP5THT7By-21" value="Display" style="ellipse;whiteSpace=wrap;html=1;fillColor=#99CCFF;" parent="1" vertex="1">
          <mxGeometry x="-130" y="-80" width="120" height="80" as="geometry" />
        </mxCell>
        <mxCell id="XBtThdsCsidGP5THT7By-36" style="edgeStyle=orthogonalEdgeStyle;rounded=0;orthogonalLoop=1;jettySize=auto;html=1;entryX=0.5;entryY=1;entryDx=0;entryDy=0;" parent="1" source="XBtThdsCsidGP5THT7By-22" target="XBtThdsCsidGP5THT7By-35" edge="1">
          <mxGeometry relative="1" as="geometry" />
        </mxCell>
        <mxCell id="XBtThdsCsidGP5THT7By-38" style="edgeStyle=orthogonalEdgeStyle;rounded=0;orthogonalLoop=1;jettySize=auto;html=1;entryX=0.5;entryY=1;entryDx=0;entryDy=0;" parent="1" source="XBtThdsCsidGP5THT7By-22" target="XBtThdsCsidGP5THT7By-37" edge="1">
          <mxGeometry relative="1" as="geometry">
            <Array as="points">
              <mxPoint x="130" y="-100" />
              <mxPoint x="210" y="-100" />
            </Array>
          </mxGeometry>
        </mxCell>
        <mxCell id="XBtThdsCsidGP5THT7By-22" value="Battery" style="ellipse;whiteSpace=wrap;html=1;fillColor=#99CCFF;" parent="1" vertex="1">
          <mxGeometry x="70" y="-80" width="120" height="80" as="geometry" />
        </mxCell>
        <mxCell id="XBtThdsCsidGP5THT7By-28" style="edgeStyle=orthogonalEdgeStyle;rounded=0;orthogonalLoop=1;jettySize=auto;html=1;entryX=0.436;entryY=1.044;entryDx=0;entryDy=0;entryPerimeter=0;" parent="1" source="XBtThdsCsidGP5THT7By-20" target="XBtThdsCsidGP5THT7By-21" edge="1">
          <mxGeometry relative="1" as="geometry" />
        </mxCell>
        <mxCell id="XBtThdsCsidGP5THT7By-35" value="Battery Capacity" style="ellipse;whiteSpace=wrap;html=1;fillColor=#FFF4C3;" parent="1" vertex="1">
          <mxGeometry x="-30" y="-200" width="120" height="80" as="geometry" />
        </mxCell>
        <mxCell id="XBtThdsCsidGP5THT7By-37" value="Battery Health State" style="ellipse;whiteSpace=wrap;html=1;fillColor=#FFF4C3;" parent="1" vertex="1">
          <mxGeometry x="150" y="-200" width="120" height="80" as="geometry" />
        </mxCell>
        <mxCell id="XBtThdsCsidGP5THT7By-57" style="edgeStyle=orthogonalEdgeStyle;rounded=0;orthogonalLoop=1;jettySize=auto;html=1;entryX=0.5;entryY=0;entryDx=0;entryDy=0;" parent="1" source="XBtThdsCsidGP5THT7By-45" target="XBtThdsCsidGP5THT7By-56" edge="1">
          <mxGeometry relative="1" as="geometry" />
        </mxCell>
        <mxCell id="XBtThdsCsidGP5THT7By-59" style="edgeStyle=orthogonalEdgeStyle;rounded=0;orthogonalLoop=1;jettySize=auto;html=1;entryX=0.5;entryY=0;entryDx=0;entryDy=0;" parent="1" source="XBtThdsCsidGP5THT7By-45" target="XBtThdsCsidGP5THT7By-58" edge="1">
          <mxGeometry relative="1" as="geometry" />
        </mxCell>
        <mxCell id="XBtThdsCsidGP5THT7By-61" style="edgeStyle=orthogonalEdgeStyle;rounded=0;orthogonalLoop=1;jettySize=auto;html=1;entryX=0.5;entryY=0;entryDx=0;entryDy=0;" parent="1" source="XBtThdsCsidGP5THT7By-45" target="XBtThdsCsidGP5THT7By-60" edge="1">
          <mxGeometry relative="1" as="geometry" />
        </mxCell>
        <mxCell id="XBtThdsCsidGP5THT7By-45" value="Operating System" style="ellipse;whiteSpace=wrap;html=1;fillColor=#FFA3B3;" parent="1" vertex="1">
          <mxGeometry x="350" y="320" width="120" height="80" as="geometry" />
        </mxCell>
        <mxCell id="XBtThdsCsidGP5THT7By-66" style="edgeStyle=orthogonalEdgeStyle;rounded=0;orthogonalLoop=1;jettySize=auto;html=1;entryX=1;entryY=0.5;entryDx=0;entryDy=0;" parent="1" source="XBtThdsCsidGP5THT7By-48" target="XBtThdsCsidGP5THT7By-64" edge="1">
          <mxGeometry relative="1" as="geometry">
            <Array as="points">
              <mxPoint x="-60" y="200" />
              <mxPoint x="-60" y="90" />
            </Array>
          </mxGeometry>
        </mxCell>
        <mxCell id="XBtThdsCsidGP5THT7By-67" style="edgeStyle=orthogonalEdgeStyle;rounded=0;orthogonalLoop=1;jettySize=auto;html=1;" parent="1" source="XBtThdsCsidGP5THT7By-48" target="XBtThdsCsidGP5THT7By-63" edge="1">
          <mxGeometry relative="1" as="geometry" />
        </mxCell>
        <mxCell id="XBtThdsCsidGP5THT7By-68" style="edgeStyle=orthogonalEdgeStyle;rounded=0;orthogonalLoop=1;jettySize=auto;html=1;entryX=1;entryY=0.5;entryDx=0;entryDy=0;" parent="1" source="XBtThdsCsidGP5THT7By-48" target="XBtThdsCsidGP5THT7By-62" edge="1">
          <mxGeometry relative="1" as="geometry">
            <Array as="points">
              <mxPoint x="-60" y="200" />
              <mxPoint x="-60" y="390" />
            </Array>
          </mxGeometry>
        </mxCell>
        <mxCell id="XBtThdsCsidGP5THT7By-48" value="Connectivity" style="ellipse;whiteSpace=wrap;html=1;fillColor=#FFA3B3;" parent="1" vertex="1">
          <mxGeometry x="-30" y="160" width="120" height="80" as="geometry" />
        </mxCell>
        <mxCell id="XBtThdsCsidGP5THT7By-49" value="Display Brightness" style="ellipse;whiteSpace=wrap;html=1;fillColor=#FFF4C3;" parent="1" vertex="1">
          <mxGeometry x="-360" y="-210" width="120" height="80" as="geometry" />
        </mxCell>
        <mxCell id="XBtThdsCsidGP5THT7By-56" value="Version" style="ellipse;whiteSpace=wrap;html=1;fillColor=#FFF4C3;" parent="1" vertex="1">
          <mxGeometry x="550" y="450" width="120" height="80" as="geometry" />
        </mxCell>
        <mxCell id="XBtThdsCsidGP5THT7By-58" value="Update Status(is new system update available)" style="ellipse;whiteSpace=wrap;html=1;fillColor=#FFF4C3;" parent="1" vertex="1">
          <mxGeometry x="140" y="450" width="120" height="80" as="geometry" />
        </mxCell>
        <mxCell id="XBtThdsCsidGP5THT7By-60" value="Health" style="ellipse;whiteSpace=wrap;html=1;fillColor=#FFF4C3;" parent="1" vertex="1">
          <mxGeometry x="350" y="450" width="120" height="80" as="geometry" />
        </mxCell>
        <mxCell id="XBtThdsCsidGP5THT7By-83" style="edgeStyle=orthogonalEdgeStyle;rounded=0;orthogonalLoop=1;jettySize=auto;html=1;" parent="1" source="XBtThdsCsidGP5THT7By-62" target="XBtThdsCsidGP5THT7By-81" edge="1">
          <mxGeometry relative="1" as="geometry" />
        </mxCell>
        <mxCell id="XBtThdsCsidGP5THT7By-84" style="edgeStyle=orthogonalEdgeStyle;rounded=0;orthogonalLoop=1;jettySize=auto;html=1;entryX=1;entryY=0.5;entryDx=0;entryDy=0;" parent="1" source="XBtThdsCsidGP5THT7By-62" target="XBtThdsCsidGP5THT7By-82" edge="1">
          <mxGeometry relative="1" as="geometry">
            <mxPoint x="-220" y="600" as="targetPoint" />
          </mxGeometry>
        </mxCell>
        <mxCell id="XBtThdsCsidGP5THT7By-86" style="edgeStyle=orthogonalEdgeStyle;rounded=0;orthogonalLoop=1;jettySize=auto;html=1;entryX=1;entryY=0.5;entryDx=0;entryDy=0;" parent="1" source="XBtThdsCsidGP5THT7By-62" target="XBtThdsCsidGP5THT7By-85" edge="1">
          <mxGeometry relative="1" as="geometry" />
        </mxCell>
        <mxCell id="XBtThdsCsidGP5THT7By-62" value="Celluar" style="ellipse;whiteSpace=wrap;html=1;fillColor=#99CCFF;" parent="1" vertex="1">
          <mxGeometry x="-230" y="450" width="120" height="80" as="geometry" />
        </mxCell>
        <mxCell id="XBtThdsCsidGP5THT7By-80" style="edgeStyle=orthogonalEdgeStyle;rounded=0;orthogonalLoop=1;jettySize=auto;html=1;" parent="1" source="XBtThdsCsidGP5THT7By-63" target="XBtThdsCsidGP5THT7By-79" edge="1">
          <mxGeometry relative="1" as="geometry">
            <Array as="points">
              <mxPoint x="-290" y="200" />
              <mxPoint x="-290" y="200" />
            </Array>
          </mxGeometry>
        </mxCell>
        <mxCell id="d2gDiPB4mw1BwgjRo6Uf-22" style="edgeStyle=orthogonalEdgeStyle;rounded=0;orthogonalLoop=1;jettySize=auto;html=1;entryX=1;entryY=0.5;entryDx=0;entryDy=0;" parent="1" source="XBtThdsCsidGP5THT7By-63" target="d2gDiPB4mw1BwgjRo6Uf-21" edge="1">
          <mxGeometry relative="1" as="geometry" />
        </mxCell>
        <mxCell id="XBtThdsCsidGP5THT7By-63" value="Bluetooth" style="ellipse;whiteSpace=wrap;html=1;fillColor=#99CCFF;" parent="1" vertex="1">
          <mxGeometry x="-220" y="160" width="120" height="80" as="geometry" />
        </mxCell>
        <mxCell id="XBtThdsCsidGP5THT7By-76" style="edgeStyle=orthogonalEdgeStyle;rounded=0;orthogonalLoop=1;jettySize=auto;html=1;" parent="1" source="XBtThdsCsidGP5THT7By-64" target="XBtThdsCsidGP5THT7By-75" edge="1">
          <mxGeometry relative="1" as="geometry" />
        </mxCell>
        <mxCell id="XBtThdsCsidGP5THT7By-78" style="edgeStyle=orthogonalEdgeStyle;rounded=0;orthogonalLoop=1;jettySize=auto;html=1;entryX=1;entryY=0.5;entryDx=0;entryDy=0;" parent="1" source="XBtThdsCsidGP5THT7By-64" target="XBtThdsCsidGP5THT7By-77" edge="1">
          <mxGeometry relative="1" as="geometry" />
        </mxCell>
        <mxCell id="XBtThdsCsidGP5THT7By-64" value="Wi-FI" style="ellipse;whiteSpace=wrap;html=1;fillColor=#99CCFF;" parent="1" vertex="1">
          <mxGeometry x="-220" y="50" width="120" height="80" as="geometry" />
        </mxCell>
        <mxCell id="XBtThdsCsidGP5THT7By-75" value="Signal Strength" style="ellipse;whiteSpace=wrap;html=1;fillColor=#FFF4C3;" parent="1" vertex="1">
          <mxGeometry x="-460" y="50" width="120" height="80" as="geometry" />
        </mxCell>
        <mxCell id="XBtThdsCsidGP5THT7By-77" value="Connection Status" style="ellipse;whiteSpace=wrap;html=1;fillColor=#FFF4C3;" parent="1" vertex="1">
          <mxGeometry x="-460" y="-70" width="120" height="80" as="geometry" />
        </mxCell>
        <mxCell id="XBtThdsCsidGP5THT7By-79" value="Is bluetooth turn on" style="ellipse;whiteSpace=wrap;html=1;fillColor=#FFF4C3;" parent="1" vertex="1">
          <mxGeometry x="-470" y="160" width="120" height="80" as="geometry" />
        </mxCell>
        <mxCell id="XBtThdsCsidGP5THT7By-81" value="Signal Strength" style="ellipse;whiteSpace=wrap;html=1;fillColor=#FFF4C3;" parent="1" vertex="1">
          <mxGeometry x="-460" y="450" width="120" height="80" as="geometry" />
        </mxCell>
        <mxCell id="XBtThdsCsidGP5THT7By-82" value="Data Usage" style="ellipse;whiteSpace=wrap;html=1;fillColor=#FFF4C3;" parent="1" vertex="1">
          <mxGeometry x="-460" y="560" width="120" height="80" as="geometry" />
        </mxCell>
        <mxCell id="XBtThdsCsidGP5THT7By-85" value="Data usage limit" style="ellipse;whiteSpace=wrap;html=1;fillColor=#FFF4C3;" parent="1" vertex="1">
          <mxGeometry x="-460" y="670" width="120" height="80" as="geometry" />
        </mxCell>
        <mxCell id="d2gDiPB4mw1BwgjRo6Uf-5" style="edgeStyle=orthogonalEdgeStyle;rounded=0;orthogonalLoop=1;jettySize=auto;html=1;" parent="1" source="d2gDiPB4mw1BwgjRo6Uf-3" target="d2gDiPB4mw1BwgjRo6Uf-4" edge="1">
          <mxGeometry relative="1" as="geometry" />
        </mxCell>
        <mxCell id="d2gDiPB4mw1BwgjRo6Uf-3" value="Storage" style="ellipse;whiteSpace=wrap;html=1;fillColor=#FFA3B3;" parent="1" vertex="1">
          <mxGeometry x="460" y="50" width="120" height="80" as="geometry" />
        </mxCell>
        <mxCell id="d2gDiPB4mw1BwgjRo6Uf-4" value="Storage Usage %" style="ellipse;whiteSpace=wrap;html=1;fillColor=#FFF4C3;" parent="1" vertex="1">
          <mxGeometry x="690" y="50" width="120" height="80" as="geometry" />
        </mxCell>
        <mxCell id="d2gDiPB4mw1BwgjRo6Uf-9" style="edgeStyle=orthogonalEdgeStyle;rounded=0;orthogonalLoop=1;jettySize=auto;html=1;entryX=0.5;entryY=1;entryDx=0;entryDy=0;" parent="1" source="d2gDiPB4mw1BwgjRo6Uf-6" target="d2gDiPB4mw1BwgjRo6Uf-8" edge="1">
          <mxGeometry relative="1" as="geometry" />
        </mxCell>
        <mxCell id="d2gDiPB4mw1BwgjRo6Uf-11" style="edgeStyle=orthogonalEdgeStyle;rounded=0;orthogonalLoop=1;jettySize=auto;html=1;entryX=0;entryY=0.5;entryDx=0;entryDy=0;" parent="1" source="d2gDiPB4mw1BwgjRo6Uf-6" target="d2gDiPB4mw1BwgjRo6Uf-10" edge="1">
          <mxGeometry relative="1" as="geometry" />
        </mxCell>
        <mxCell id="d2gDiPB4mw1BwgjRo6Uf-6" value="CPU" style="ellipse;whiteSpace=wrap;html=1;fillColor=#99CCFF;" parent="1" vertex="1">
          <mxGeometry x="280" y="-80" width="120" height="80" as="geometry" />
        </mxCell>
        <mxCell id="d2gDiPB4mw1BwgjRo6Uf-7" style="edgeStyle=orthogonalEdgeStyle;rounded=0;orthogonalLoop=1;jettySize=auto;html=1;entryX=0.573;entryY=1.02;entryDx=0;entryDy=0;entryPerimeter=0;" parent="1" source="XBtThdsCsidGP5THT7By-20" target="d2gDiPB4mw1BwgjRo6Uf-6" edge="1">
          <mxGeometry relative="1" as="geometry" />
        </mxCell>
        <mxCell id="d2gDiPB4mw1BwgjRo6Uf-8" value="CPU Temperature" style="ellipse;whiteSpace=wrap;html=1;fillColor=#FFF4C3;" parent="1" vertex="1">
          <mxGeometry x="300" y="-200" width="120" height="80" as="geometry" />
        </mxCell>
        <mxCell id="d2gDiPB4mw1BwgjRo6Uf-10" value="CPU Load(%)" style="ellipse;whiteSpace=wrap;html=1;fillColor=#FFF4C3;" parent="1" vertex="1">
          <mxGeometry x="480" y="-200" width="120" height="80" as="geometry" />
        </mxCell>
        <mxCell id="d2gDiPB4mw1BwgjRo6Uf-15" style="edgeStyle=orthogonalEdgeStyle;rounded=0;orthogonalLoop=1;jettySize=auto;html=1;entryX=0.5;entryY=1;entryDx=0;entryDy=0;" parent="1" source="d2gDiPB4mw1BwgjRo6Uf-12" target="d2gDiPB4mw1BwgjRo6Uf-14" edge="1">
          <mxGeometry relative="1" as="geometry" />
        </mxCell>
        <mxCell id="d2gDiPB4mw1BwgjRo6Uf-12" value="RAM" style="ellipse;whiteSpace=wrap;html=1;fillColor=#99CCFF;" parent="1" vertex="1">
          <mxGeometry x="600" y="-90" width="120" height="80" as="geometry" />
        </mxCell>
        <mxCell id="d2gDiPB4mw1BwgjRo6Uf-14" value="RAM Usage(%)" style="ellipse;whiteSpace=wrap;html=1;fillColor=#FFF4C3;" parent="1" vertex="1">
          <mxGeometry x="730" y="-200" width="120" height="80" as="geometry" />
        </mxCell>
        <mxCell id="d2gDiPB4mw1BwgjRo6Uf-18" value="Is automatic&lt;br&gt;brightness" style="ellipse;whiteSpace=wrap;html=1;fillColor=#FFF4C3;" parent="1" vertex="1">
          <mxGeometry x="-180" y="-210" width="120" height="80" as="geometry" />
        </mxCell>
        <mxCell id="d2gDiPB4mw1BwgjRo6Uf-21" value="Connected to another device&amp;nbsp;" style="ellipse;whiteSpace=wrap;html=1;fillColor=#FFF4C3;" parent="1" vertex="1">
          <mxGeometry x="-470" y="260" width="120" height="80" as="geometry" />
        </mxCell>
        <mxCell id="d2gDiPB4mw1BwgjRo6Uf-24" value="Bluetooth Version" style="ellipse;whiteSpace=wrap;html=1;fillColor=#FFF4C3;" parent="1" vertex="1">
          <mxGeometry x="-470" y="360" width="120" height="80" as="geometry" />
        </mxCell>
        <mxCell id="d2gDiPB4mw1BwgjRo6Uf-25" style="edgeStyle=orthogonalEdgeStyle;rounded=0;orthogonalLoop=1;jettySize=auto;html=1;" parent="1" source="XBtThdsCsidGP5THT7By-63" edge="1">
          <mxGeometry relative="1" as="geometry">
            <mxPoint x="-350" y="400" as="targetPoint" />
            <Array as="points">
              <mxPoint x="-280" y="200" />
              <mxPoint x="-280" y="400" />
            </Array>
          </mxGeometry>
        </mxCell>
      </root>
    </mxGraphModel>
  </diagram>
</mxfile>
